<svg clip-rule="evenodd" fill-rule="evenodd" stroke-linejoin="round" stroke-miterlimit="2" viewBox="0 0 941 778" xmlns="http://www.w3.org/2000/svg"><g fill="#be1e2d" fill-rule="nonzero" transform="matrix(4.16667 0 0 4.16667 -316.537 -238.735)"><path d="m258.009 88.437c-1.3 9.928-.44.081-9.214.226-.224-1.421-.596-2.784-1.098-4.08 2.898-3.011 11.51-5.304 10.312 3.854zm-26.608 22.581c-9.099.311-16.765-7.176-17.089-16.687s6.814-17.503 15.912-17.813 16.764 7.177 17.088 16.688c.324 9.512-6.814 17.502-15.911 17.812zm-18.875-21.118c-8.767.452-7.236 10.217-9.209.401-1.82-9.055 6.929-7.354 10.028-4.546-.414 1.327-.693 2.712-.819 4.145zm-61.888 23.871c-9.097.31-16.762-7.176-17.085-16.688-.325-9.511 6.813-17.502 15.909-17.812 9.099-.31 16.765 7.176 17.088 16.688.324 9.511-6.814 17.502-15.912 17.812zm139.031-30.891c-14.64-16.128-38.91-22.855-60.11-21.293-15.717 1.157-34.447 8.948-38.31 25.303-13.871-31.425-54.386-35.823-83.331-22.55-14.822 6.798-27.391 19.419-30.558 35.811-3.329 17.229-.868 34.595 9.392 49.049 11.611 16.36 30.04 26.738 47.382 36.687l-1.391-40.824c-.106-3.116-2.115-7.343-4.465-9.393l-21.558-18.815c-2.349-2.05-2.664-5.71-.701-8.131l3.431-4.232c1.964-2.422 5.497-2.731 7.851-.686l12.15 10.551c2.354 2.044 6.83 3.63 9.946 3.524l23.374-.797c3.116-.106 7.452 1.629 9.634 3.856l18.185 18.556c.628.64 1.055 1.405 1.323 2.215.194-1.133.684-2.215 1.474-3.087l17.3-19.101c2.092-2.311 6.354-4.288 9.471-4.395l23.375-.796c3.116-.107 7.45 1.631 9.63 3.861l21.249 21.734c2.179 2.229 2.192 5.889.027 8.133l-2.767 2.866c-2.165 2.244-5.794 2.331-8.063.192l-9.459-8.908c-2.27-2.138-4.04-1.337-3.934 1.778l1.136 33.34c6.848-4.269 13.462-8.449 19.221-12.799 13.479-10.179 25.666-22.878 29.883-39.687 3.741-14.914-.55-30.685-10.787-41.962z"/><path d="m215.568 202.861-1.965-57.625c-.105-3.115-1.919-3.786-4.028-1.49l-5.811 6.325c-2.11 2.296-5.549 2.284-7.642-.025l-2.734-3.019c-.605-.667-1.014-1.463-1.27-2.304-.208 1.063-.703 2.078-1.497 2.901l-2.768 2.866c-2.165 2.243-5.814 2.352-8.107.238l-6.314-5.812c-2.294-2.112-4.084-1.29-3.978 1.825l2.157 63.297c.01.282-.008.558-.039.831.069.06.141.117.21.178 8.428 7.411 18.448 18.249 20.015 29.826.039.288.223.499.487.654-.047.698-.08 1.401-.098 2.111-.028 1.165 4.59-.889 4.625-2.315.005-.214.019-.424.026-.637.166-.218.258-.459.222-.723-.039-.29-.093-.578-.141-.866 1.01-14.885 8.417-26.462 18.65-36.236z"/><path d="m155.722 178.974c-.106-3.117-1.764-5.613-3.684-5.547-1.921.065-3.405 2.668-3.299 5.785l.533 15.628c2.408 1.489 4.793 3.014 7.147 4.584z"/><path d="m236.483 176.222c-.107-3.118-1.764-5.613-3.685-5.547-1.92.065-3.403 2.668-3.297 5.784l.502 14.71c2.24-1.588 4.524-3.135 6.831-4.652z"/></g></svg>